<svg width="165" height="179" viewBox="0 0 165 179" fill="none" xmlns="http://www.w3.org/2000/svg">
<path d="M88.8575 69.1152C98.7124 72.5088 103.95 83.2492 100.557 93.1042C97.1634 102.959 86.4238 108.197 76.5689 104.804C66.7139 101.411 61.4751 90.6706 64.8682 80.8156C68.2616 70.9605 79.0024 65.7219 88.8575 69.1152Z" fill="black" stroke="black" stroke-width="5.24236"/>
<path d="M121.625 75.4056L141.688 75.1061C141.349 42.2771 114.421 15.8174 81.5919 16.1567C48.7629 16.4961 22.3031 43.4241 22.6425 76.2531L41.3729 76.6036" stroke="black" stroke-width="17.6909" stroke-miterlimit="10"/>
<path d="M23.0928 97.4774C23.4321 130.306 50.3601 156.766 83.1891 156.427C116.018 156.087 142.478 129.159 142.138 96.3304" stroke="black" stroke-width="44.6581" stroke-miterlimit="10"/>
</svg>
